# xmcd
#
# Track frame offsets: 
#        150
#        11366
#        27512
#        37817
#        49384
#        61953
#        72986
#        85197
#        94305
#        107276
#        117419
#        130084
#        140487
#        151799
#        164677
#        175332
#        187657
#        200194
#        211039
#        221749
#        233372
#        246037
#        262352
#        274904
#        286984
#        295939
#        306099
#        316952
#        327242
#
# Disc length: 4497 seconds
#
# Revision: 2
# Processed by: cddbd v1.5.2PL0 Copyright (c) Steve Scherf et al.
# Submitted via: ExactAudioCopyFreeDBPlugin 1.0
#
DISCID=a9118f1d
DTITLE=Howard Tate - Get It While You Can:  The Complete Legendary Ver
DTITLE=ve Sessions
DYEAR=2004
DGENRE=Rhythm and Blues
TTITLE0=Ain't Nobody Home
TTITLE1=Part-Time Love
TTITLE2=Glad I Know Better
TTITLE3=How Blue Can You Get
TTITLE4=Get It While You Can
TTITLE5=Baby I Love You
TTITLE6=I Learned It All the Hard Way
TTITLE7=Everyday I Have the Blues
TTITLE8=How Come My Bulldog Don't Bark
TTITLE9=Look At Granny Run Run
TTITLE10=Stop
TTITLE11=Sweet Love Child
TTITLE12=Ain't Nobody Home (mono)
TTITLE13=How Come My Bulldog Don't Bark (mono)
TTITLE14=Look at Granny Run Run (mono)
TTITLE15=Half a Man (mono)
TTITLE16=Get It While You Can (mono)
TTITLE17=Glad I Know Better (mono)
TTITLE18=Baby I Love You (mono)
TTITLE19=How Blue Can You Get (mono)
TTITLE20=I Learned It All the Hard Way (mono)
TTITLE21=Part-Time Love (mono)
TTITLE22=Stop (mono)
TTITLE23=Shoot 'Em All Down (mono)
TTITLE24=Everyday I Have the Blues (mono)
TTITLE25=Night Owl (mono)
TTITLE26=Sweet Love Child (mono)
TTITLE27=I'm Your Servant (mono)
TTITLE28=Give Me Some Courage
EXTD=*  Mono Singles\n+  Bonus Track
EXTT0=
EXTT1=
EXTT2=
EXTT3=
EXTT4=
EXTT5=
EXTT6=
EXTT7=
EXTT8=
EXTT9=
EXTT10=
EXTT11=
EXTT12=
EXTT13=
EXTT14=
EXTT15=
EXTT16=
EXTT17=
EXTT18=
EXTT19=
EXTT20=
EXTT21=
EXTT22=
EXTT23=
EXTT24=
EXTT25=
EXTT26=
EXTT27=
EXTT28=*  Mono Singles\n+  Bonus Track
PLAYORDER=
